# xmcd
# Copyright (C) 1995-1998 Ti Kan
#
# Track frame offsets:
#       150
#       12661
#       23053
#
# Disc length: 451 seconds
#
# Revision: 0
# Processed by: cddbd v1.5.1PL0 Copyright (c) Steve Scherf et al.
# Submitted via: CD-Transfer v1.0
#
DISCID=1b01c103
DTITLE=Smashing Potatoes - 
DYEAR=2005
DGENRE=
TTITLE0=Frau Küenzi
TTITLE1=Guggerzytli
TTITLE2=Oh Läck Du Miär
EXTD=
EXTT0=
EXTT1=
EXTT2=
PLAYORDER=
